<?xml version="1.0" encoding="UTF-8"?>
<svg xmlns="http://www.w3.org/2000/svg" id="Layer_1" viewBox="0 0 439.98 142.6">
  <defs>
    <style>
      .cls-1 {
        fill: #fff;
      }

      .cls-2 {
        fill: #64A70B;
      }

      .cls-3 {
        isolation: isolate;
      }

      .cls-4 {
        fill: #373A36;
      }
    </style>
  </defs>
  <title>logo</title>
  <rect class="cls-1" width="142.6" height="142.6" rx="19.45" ry="19.45"/>
  <path id="icon" class="cls-2" d="M19.45,0A19.4,19.4,0,0,0,0,19.45V123.16a19.4,19.4,0,0,0,15.34,19,379.88,379.88,0,0,1,10-53.39,1.44,1.44,0,0,0-.47-1A4.57,4.57,0,0,1,24.46,86l11.68,2a4.35,4.35,0,0,1-2.41,2.28c-5,20.23-8.16,39.39-10,52.4h99.47a19.4,19.4,0,0,0,19.45-19.45V58.1C88.69,81.31,53,68.69,50.49,68c4.65-3.45,27.86-15,61.37-15.22a156.16,156.16,0,0,1,30.74,3V19.45a19.41,19.41,0,0,0-2.13-8.84c-27.27,12.37-52,31.92-63,39.1-13.83,9-29.65,17.56-33,18.9,7.3-17,45-49.56,95.25-59.33A19.38,19.38,0,0,0,123.16,0h-56c-5.1,10.57-11.91,26.19-20.9,49.37C42.93,58,40,67.08,37.42,76.2a3.4,3.4,0,0,1,.58,3L26.74,77.55c0.29-1.73,2.11-2,2.78-2.91,1.55-4.7,3.25-9.34,5.11-13.87C46.48,32,56,12.72,63.15,0H19.45ZM142.6,55.77v0ZM57.27,72.16c9.4,0.15,22.14,2.85,34.84,12.68,11,8.52,22,24.49,24.36,29.64,0,0-9.55-15.16-28.17-18.23-41.53-8.79-45.35-22-45.35-22C44.65,73.47,50,72,57.27,72.16Zm-31.12,8.1,11.47,1.81L37,85.23,25.3,83.28Z"/>
  <g>
    <g class="cls-3">
      <path class="cls-4" d="M173.05,89.75V24.86h22.39a42.45,42.45,0,0,1,10.88,1.21,20.75,20.75,0,0,1,7.4,3.46A13.41,13.41,0,0,1,218,35a18.29,18.29,0,0,1,1.35,7.18,14.16,14.16,0,0,1-.67,4.38,12.66,12.66,0,0,1-2.09,3.9,15.64,15.64,0,0,1-3.59,3.3,21.69,21.69,0,0,1-5.18,2.51q13.37,3,13.37,14.45a18.42,18.42,0,0,1-1.57,7.63,16.83,16.83,0,0,1-4.58,6,21.85,21.85,0,0,1-7.4,4,32.33,32.33,0,0,1-10.05,1.44h-24.5ZM185.13,53h9.65q6.15,0,9.33-2.24t3.19-7.13q0-5.07-2.87-7.23t-9-2.15H185.13V53Zm0,8.35v19h12.25a16.93,16.93,0,0,0,5.63-.81,9.78,9.78,0,0,0,3.63-2.15,7.89,7.89,0,0,0,2-3.14,11.84,11.84,0,0,0,.61-3.81,10.13,10.13,0,0,0-.67-3.79,7.11,7.11,0,0,0-2.11-2.87,9.88,9.88,0,0,0-3.68-1.82,20.41,20.41,0,0,0-5.43-.63H185.13Z"/>
      <path class="cls-4" d="M294.67,89.75h-9.34a4.08,4.08,0,0,1-2.58-.78,4.46,4.46,0,0,1-1.46-2l-4.85-13.24H249.57L244.72,87a4.25,4.25,0,0,1-1.41,1.88,4,4,0,0,1-2.58.85h-9.38l25.49-64.89h12.34Zm-42-24.5h20.69l-7.9-21.58q-0.54-1.44-1.19-3.39T263,36q-0.63,2.29-1.23,4.26t-1.19,3.46Z"/>
      <path class="cls-4" d="M342.23,36.66a3.33,3.33,0,0,1-1.15,1.39,2.88,2.88,0,0,1-1.55.4,3.92,3.92,0,0,1-2-.7q-1.12-.7-2.65-1.55a21.59,21.59,0,0,0-3.57-1.55,15,15,0,0,0-4.82-.7,14.17,14.17,0,0,0-4.38.61A9.23,9.23,0,0,0,319,36.26a6.72,6.72,0,0,0-1.91,2.58,8.46,8.46,0,0,0-.63,3.3A5.74,5.74,0,0,0,317.71,46a10.68,10.68,0,0,0,3.39,2.6,31.45,31.45,0,0,0,4.8,1.93q2.69,0.85,5.5,1.82a53.22,53.22,0,0,1,5.5,2.24,19.06,19.06,0,0,1,4.8,3.23,14.64,14.64,0,0,1,3.39,4.78,16.59,16.59,0,0,1,1.28,6.87,22.39,22.39,0,0,1-1.5,8.23,19,19,0,0,1-4.4,6.69,20.7,20.7,0,0,1-7.07,4.49,26,26,0,0,1-9.56,1.64,30.8,30.8,0,0,1-6.1-.61A32.18,32.18,0,0,1,312,88.14a30,30,0,0,1-5.16-2.69,25.36,25.36,0,0,1-4.29-3.5l3.5-5.79a4.47,4.47,0,0,1,1.19-1.05,2.9,2.9,0,0,1,1.55-.43,4.28,4.28,0,0,1,2.42.92q1.3,0.92,3.07,2a23.44,23.44,0,0,0,4.17,2,16.13,16.13,0,0,0,5.77.92q5.16,0,8-2.45a8.78,8.78,0,0,0,2.83-7A6.53,6.53,0,0,0,333.73,67a10.33,10.33,0,0,0-3.39-2.71,25.33,25.33,0,0,0-4.8-1.86q-2.69-.76-5.48-1.66a47,47,0,0,1-5.48-2.15,17.72,17.72,0,0,1-4.8-3.28,14.91,14.91,0,0,1-3.39-5,19.25,19.25,0,0,1-1.28-7.47,17.86,17.86,0,0,1,5.54-12.88,20.4,20.4,0,0,1,6.67-4.17,24.26,24.26,0,0,1,9-1.57,30.28,30.28,0,0,1,10.59,1.79,23.91,23.91,0,0,1,8.26,5Z"/>
      <path class="cls-4" d="M377.1,89.75H365V24.86H377.1V89.75Z"/>
      <path class="cls-4" d="M434.36,36.66a3.34,3.34,0,0,1-1.14,1.39,2.88,2.88,0,0,1-1.55.4,3.93,3.93,0,0,1-2-.7q-1.12-.7-2.65-1.55a21.56,21.56,0,0,0-3.57-1.55,15,15,0,0,0-4.82-.7,14.17,14.17,0,0,0-4.38.61,9.24,9.24,0,0,0-3.14,1.68,6.73,6.73,0,0,0-1.91,2.58,8.48,8.48,0,0,0-.63,3.3A5.74,5.74,0,0,0,409.84,46a10.68,10.68,0,0,0,3.39,2.6,31.37,31.37,0,0,0,4.8,1.93q2.69,0.85,5.5,1.82a53.33,53.33,0,0,1,5.5,2.24,19.08,19.08,0,0,1,4.8,3.23,14.64,14.64,0,0,1,3.39,4.78,16.6,16.6,0,0,1,1.28,6.87,22.37,22.37,0,0,1-1.5,8.23,19,19,0,0,1-4.4,6.69,20.69,20.69,0,0,1-7.07,4.49A26,26,0,0,1,416,90.47a30.79,30.79,0,0,1-6.1-.61,32.16,32.16,0,0,1-5.77-1.73,30,30,0,0,1-5.16-2.69,25.4,25.4,0,0,1-4.29-3.5l3.5-5.79a4.46,4.46,0,0,1,1.19-1.05,2.9,2.9,0,0,1,1.55-.43,4.28,4.28,0,0,1,2.42.92q1.3,0.92,3.07,2a23.48,23.48,0,0,0,4.17,2,16.13,16.13,0,0,0,5.77.92q5.16,0,8-2.45a8.78,8.78,0,0,0,2.83-7A6.53,6.53,0,0,0,425.86,67a10.32,10.32,0,0,0-3.39-2.71,25.35,25.35,0,0,0-4.8-1.86q-2.69-.76-5.48-1.66a46.89,46.89,0,0,1-5.48-2.15,17.69,17.69,0,0,1-4.8-3.28,14.91,14.91,0,0,1-3.39-5,19.25,19.25,0,0,1-1.28-7.47,17.86,17.86,0,0,1,5.54-12.88,20.39,20.39,0,0,1,6.66-4.17,24.26,24.26,0,0,1,9-1.57,30.29,30.29,0,0,1,10.59,1.79,23.9,23.9,0,0,1,8.26,5Z"/>
    </g>
    <g class="cls-3">
      <path class="cls-4" d="M191.1,101.86v4H185v17.79h-5.06V105.87h-6.13v-4H191.1Z"/>
      <path class="cls-4" d="M214.2,101.86v3.89h-8.95v5.09h6.85v3.74h-6.85v5.19h8.95v3.89h-14v-21.8h14Z"/>
      <path class="cls-4" d="M238.69,118a1,1,0,0,1,.36.07,1,1,0,0,1,.34.23l2,2.11a8.32,8.32,0,0,1-3.3,2.6,11.54,11.54,0,0,1-4.69.88,11.16,11.16,0,0,1-4.45-.85,9.64,9.64,0,0,1-3.34-2.33,10.29,10.29,0,0,1-2.1-3.53,13.05,13.05,0,0,1-.73-4.43,11.69,11.69,0,0,1,.84-4.48,10.32,10.32,0,0,1,5.94-5.83,12.52,12.52,0,0,1,4.62-.82,11.82,11.82,0,0,1,2.31.22,11.32,11.32,0,0,1,2,.6,9.45,9.45,0,0,1,1.74.91,8.31,8.31,0,0,1,1.41,1.17L240,106.81a2.15,2.15,0,0,1-.39.38,1,1,0,0,1-.63.17,1.12,1.12,0,0,1-.51-0.12,5.74,5.74,0,0,1-.51-0.29l-0.59-.37a4.46,4.46,0,0,0-.76-0.37,6.27,6.27,0,0,0-1-.29,7,7,0,0,0-1.38-.12,6.34,6.34,0,0,0-2.51.49,5.51,5.51,0,0,0-2,1.39,6.46,6.46,0,0,0-1.27,2.19,8.58,8.58,0,0,0-.46,2.89,9,9,0,0,0,.46,3,6.52,6.52,0,0,0,1.24,2.19,5.26,5.26,0,0,0,1.83,1.35,5.48,5.48,0,0,0,2.24.46,10.78,10.78,0,0,0,1.26-.07,5.2,5.2,0,0,0,1.05-.23A4.85,4.85,0,0,0,237,119a6.19,6.19,0,0,0,.89-0.65,1.75,1.75,0,0,1,.39-0.25A1,1,0,0,1,238.69,118Z"/>
      <path class="cls-4" d="M269.7,123.66h-5.09v-9.21h-8.85v9.21h-5.09v-21.8h5.09V111h8.85v-9.11h5.09v21.8Z"/>
      <path class="cls-4" d="M283.47,101.89a1.43,1.43,0,0,1,.4.11,1.38,1.38,0,0,1,.34.23,4.16,4.16,0,0,1,.37.4l10.35,13.09q-0.06-.63-0.09-1.22t0-1.11V101.86h4.46v21.8h-2.63a2.42,2.42,0,0,1-1-.18,2.11,2.11,0,0,1-.78-0.66l-10.28-13q0,0.57.07,1.12c0,0.36,0,.71,0,1v11.68h-4.46v-21.8h2.66A4.38,4.38,0,0,1,283.47,101.89Z"/>
      <path class="cls-4" d="M331.36,112.75a11.71,11.71,0,0,1-.82,4.4,10.39,10.39,0,0,1-5.86,5.89,13,13,0,0,1-9.27,0,10.4,10.4,0,0,1-5.89-5.89,12.27,12.27,0,0,1,0-8.79,10.47,10.47,0,0,1,2.3-3.53,10.66,10.66,0,0,1,3.58-2.35,12.2,12.2,0,0,1,4.64-.85,12,12,0,0,1,4.63.86,10.68,10.68,0,0,1,3.57,2.36,10.52,10.52,0,0,1,2.3,3.53A11.68,11.68,0,0,1,331.36,112.75Zm-5.18,0a9.42,9.42,0,0,0-.42-2.91,6.14,6.14,0,0,0-1.2-2.19,5.2,5.2,0,0,0-1.92-1.38,6.61,6.61,0,0,0-2.59-.48,6.71,6.71,0,0,0-2.61.48,5.17,5.17,0,0,0-1.93,1.38,6.17,6.17,0,0,0-1.2,2.19,10.37,10.37,0,0,0,0,5.83,6.18,6.18,0,0,0,1.2,2.19,5.1,5.1,0,0,0,1.93,1.37,6.8,6.8,0,0,0,2.61.47,6.7,6.7,0,0,0,2.59-.47,5.12,5.12,0,0,0,1.92-1.37,6.15,6.15,0,0,0,1.2-2.19A9.46,9.46,0,0,0,326.18,112.75Z"/>
      <path class="cls-4" d="M345.8,119.62h8.08v4H340.75v-21.8h5.06v17.76Z"/>
      <path class="cls-4" d="M383.56,112.75a11.71,11.71,0,0,1-.82,4.4,10.39,10.39,0,0,1-5.86,5.89,13,13,0,0,1-9.27,0,10.4,10.4,0,0,1-5.89-5.89,12.27,12.27,0,0,1,0-8.79,10.47,10.47,0,0,1,2.3-3.53,10.66,10.66,0,0,1,3.58-2.35,12.2,12.2,0,0,1,4.64-.85,12,12,0,0,1,4.63.86,10.68,10.68,0,0,1,3.57,2.36,10.52,10.52,0,0,1,2.3,3.53A11.68,11.68,0,0,1,383.56,112.75Zm-5.18,0a9.42,9.42,0,0,0-.42-2.91,6.14,6.14,0,0,0-1.2-2.19,5.2,5.2,0,0,0-1.92-1.38,6.61,6.61,0,0,0-2.59-.48,6.71,6.71,0,0,0-2.61.48,5.17,5.17,0,0,0-1.93,1.38,6.17,6.17,0,0,0-1.2,2.19,10.37,10.37,0,0,0,0,5.83,6.18,6.18,0,0,0,1.2,2.19,5.1,5.1,0,0,0,1.93,1.37,6.8,6.8,0,0,0,2.61.47,6.7,6.7,0,0,0,2.59-.47,5.12,5.12,0,0,0,1.92-1.37,6.15,6.15,0,0,0,1.2-2.19A9.46,9.46,0,0,0,378.38,112.75Z"/>
      <path class="cls-4" d="M403.22,120a8.59,8.59,0,0,0,1.85-.18,9,9,0,0,0,1.53-.48V116h-2.15a1,1,0,0,1-.75-0.25,0.85,0.85,0,0,1-.27-0.64v-2.78h7.75v9.2a11.32,11.32,0,0,1-1.74,1.05,11.14,11.14,0,0,1-1.93.73,14.41,14.41,0,0,1-2.18.42,21.68,21.68,0,0,1-2.49.13,11.42,11.42,0,0,1-4.43-.85,10.6,10.6,0,0,1-5.86-5.86,11.49,11.49,0,0,1-.85-4.43,12.08,12.08,0,0,1,.81-4.48,10.09,10.09,0,0,1,2.31-3.52,10.47,10.47,0,0,1,3.64-2.3,13.12,13.12,0,0,1,4.76-.82,13.92,13.92,0,0,1,2.56.22,12.64,12.64,0,0,1,2.21.61,10.2,10.2,0,0,1,1.85.93,10,10,0,0,1,1.5,1.17l-1.47,2.23a1.65,1.65,0,0,1-.5.49,1.19,1.19,0,0,1-.64.18,1.75,1.75,0,0,1-.93-0.3q-0.6-.36-1.13-0.62a6.92,6.92,0,0,0-1.08-.43,7,7,0,0,0-1.17-.24,11.47,11.47,0,0,0-1.38-.07,6.28,6.28,0,0,0-2.56.5,5.48,5.48,0,0,0-1.94,1.41,6.42,6.42,0,0,0-1.23,2.19,8.86,8.86,0,0,0-.43,2.85,9.16,9.16,0,0,0,.48,3.08,6.63,6.63,0,0,0,1.32,2.27,5.61,5.61,0,0,0,2,1.41A6.49,6.49,0,0,0,403.22,120Z"/>
      <path class="cls-4" d="M432.09,115.37v8.29H427v-8.29l-7.9-13.51h4.46a1.65,1.65,0,0,1,1,.31,2.29,2.29,0,0,1,.63.79l3.08,6.34L429,110.7q0.32,0.64.55,1.27a11.65,11.65,0,0,1,.54-1.29l0.67-1.39,3.05-6.34a1.91,1.91,0,0,1,.25-0.39,2.23,2.23,0,0,1,.36-0.35,1.78,1.78,0,0,1,.46-0.25,1.65,1.65,0,0,1,.58-0.1H440Z"/>
    </g>
  </g>
</svg>